<mxfile host="app.diagrams.net" modified="2020-03-31T10:03:21.846Z" agent="5.0 (Windows NT 10.0; Win64; x64) AppleWebKit/537.36 (KHTML, like Gecko) Chrome/80.0.3987.149 Safari/537.36" etag="2cC938W1cWzUmiBLbu8X" version="12.9.5" type="gitlab">
  <diagram name="Page-1" id="2c0d36ab-eaac-3732-788b-9136903baeff">
    <mxGraphModel dx="1021" dy="529" grid="1" gridSize="10" guides="1" tooltips="1" connect="1" arrows="1" fold="1" page="1" pageScale="1.5" pageWidth="1169" pageHeight="827" background="#ffffff" math="0" shadow="0">
      <root>
        <mxCell id="0" />
        <mxCell id="1" parent="0" />
        <mxCell id="2" value="Logiciel de simulation &#xa;d&#39;un service de taxi" style="rounded=1;fillColor=#23445D;gradientColor=none;strokeColor=none;fontColor=#FFFFFF;fontStyle=1;fontFamily=Tahoma;fontSize=20;" parent="1" vertex="1">
          <mxGeometry x="757" y="140" width="333" height="125.5" as="geometry" />
        </mxCell>
        <mxCell id="4" value="panneau administrateur" style="rounded=1;fillColor=#23445D;gradientColor=none;strokeColor=none;fontColor=#FFFFFF;fontStyle=1;fontFamily=Tahoma;fontSize=14" parent="1" vertex="1">
          <mxGeometry x="1820" y="327.25" width="200" height="62.75" as="geometry" />
        </mxCell>
        <mxCell id="9" value="" style="edgeStyle=elbowEdgeStyle;elbow=vertical;strokeWidth=2;rounded=0;exitX=0.489;exitY=0.996;exitDx=0;exitDy=0;exitPerimeter=0;" parent="1" source="2" target="4" edge="1">
          <mxGeometry x="337" y="215.5" width="100" height="100" as="geometry">
            <mxPoint x="337" y="315.5" as="sourcePoint" />
            <mxPoint x="437" y="215.5" as="targetPoint" />
            <Array as="points">
              <mxPoint x="1240" y="298" />
            </Array>
          </mxGeometry>
        </mxCell>
        <mxCell id="10" value="Édition de profil" style="rounded=1;fillColor=#23445D;gradientColor=none;strokeColor=none;fontColor=#FFFFFF;fontStyle=1;fontFamily=Tahoma;fontSize=14" parent="1" vertex="1">
          <mxGeometry x="560" y="337.75" width="190" height="52.25" as="geometry" />
        </mxCell>
        <mxCell id="12" value="Page d’inscription" style="rounded=1;fillColor=#23445D;gradientColor=none;strokeColor=none;fontColor=#FFFFFF;fontStyle=1;fontFamily=Tahoma;fontSize=14" parent="1" vertex="1">
          <mxGeometry x="360" y="335.5" width="168" height="54.5" as="geometry" />
        </mxCell>
        <mxCell id="xQzob73jMmwW_WmET0h1-109" value="Système de verification&#xa;de connexion selon le status" style="rounded=1;fillColor=#23445D;gradientColor=none;strokeColor=none;fontColor=#FFFFFF;fontStyle=1;fontFamily=Tahoma;fontSize=14" parent="1" vertex="1">
          <mxGeometry x="337" y="560" width="212" height="50" as="geometry" />
        </mxCell>
        <mxCell id="13" value="Page de connexion &#xa;(taxi, usager, administrateur)" style="rounded=1;fillColor=#23445D;gradientColor=none;strokeColor=none;fontColor=#FFFFFF;fontStyle=1;fontFamily=Tahoma;fontSize=14" parent="1" vertex="1">
          <mxGeometry x="107" y="335.5" width="223" height="54.5" as="geometry" />
        </mxCell>
        <mxCell id="41" value="Démission ou désinscription" style="rounded=1;fillColor=#23445D;gradientColor=none;strokeColor=none;fontColor=#FFFFFF;fontStyle=1;fontFamily=Tahoma;fontSize=14" parent="1" vertex="1">
          <mxGeometry x="500" y="430" width="210" height="40" as="geometry" />
        </mxCell>
        <mxCell id="48" value="Liste des utilisateurs" style="rounded=1;fillColor=#23445D;gradientColor=none;strokeColor=none;fontColor=#FFFFFF;fontStyle=1;fontFamily=Tahoma;fontSize=14" parent="1" vertex="1">
          <mxGeometry x="1770" y="475" width="160" height="40" as="geometry" />
        </mxCell>
        <mxCell id="59" value="" style="edgeStyle=elbowEdgeStyle;elbow=vertical;strokeWidth=2;rounded=0;exitX=0.489;exitY=1.012;exitDx=0;exitDy=0;exitPerimeter=0;" parent="1" source="2" target="12" edge="1">
          <mxGeometry x="347" y="225.5" width="100" height="100" as="geometry">
            <mxPoint x="924" y="265" as="sourcePoint" />
            <mxPoint x="1466.9999999999998" y="345.5" as="targetPoint" />
          </mxGeometry>
        </mxCell>
        <mxCell id="61" value="" style="edgeStyle=elbowEdgeStyle;elbow=vertical;strokeWidth=2;rounded=0" parent="1" target="13" edge="1">
          <mxGeometry x="-23" y="135.5" width="100" height="100" as="geometry">
            <mxPoint x="920" y="266" as="sourcePoint" />
            <mxPoint x="77" y="135.5" as="targetPoint" />
          </mxGeometry>
        </mxCell>
        <mxCell id="103" value="" style="edgeStyle=elbowEdgeStyle;elbow=vertical;strokeWidth=2;rounded=0" parent="1" source="10" target="41" edge="1">
          <mxGeometry x="-23" y="135.5" width="100" height="100" as="geometry">
            <mxPoint x="-23" y="235.5" as="sourcePoint" />
            <mxPoint x="77" y="135.5" as="targetPoint" />
          </mxGeometry>
        </mxCell>
        <mxCell id="104" value="" style="edgeStyle=elbowEdgeStyle;elbow=vertical;strokeWidth=2;rounded=0" parent="1" source="4" target="48" edge="1">
          <mxGeometry x="-23" y="135.5" width="100" height="100" as="geometry">
            <mxPoint x="-23" y="235.5" as="sourcePoint" />
            <mxPoint x="77" y="135.5" as="targetPoint" />
          </mxGeometry>
        </mxCell>
        <mxCell id="xQzob73jMmwW_WmET0h1-108" value="" style="edgeStyle=elbowEdgeStyle;elbow=vertical;strokeWidth=2;rounded=0;entryX=0.5;entryY=0;entryDx=0;entryDy=0;spacing=2;spacingTop=11;spacingBottom=9;endSize=14;sourcePerimeterSpacing=5;" parent="1" target="10" edge="1">
          <mxGeometry x="357" y="235.5" width="100" height="100" as="geometry">
            <mxPoint x="920" y="266" as="sourcePoint" />
            <mxPoint x="1040" y="330" as="targetPoint" />
            <Array as="points">
              <mxPoint x="790" y="300" />
            </Array>
          </mxGeometry>
        </mxCell>
        <mxCell id="xQzob73jMmwW_WmET0h1-113" value="" style="edgeStyle=elbowEdgeStyle;elbow=vertical;strokeWidth=2;rounded=0;entryX=0.5;entryY=0;entryDx=0;entryDy=0;" parent="1" target="xQzob73jMmwW_WmET0h1-114" edge="1">
          <mxGeometry x="-501.34000000000003" y="150" width="100" height="100" as="geometry">
            <mxPoint x="443" y="389" as="sourcePoint" />
            <mxPoint x="563.66" y="470" as="targetPoint" />
            <Array as="points">
              <mxPoint x="443" y="400" />
              <mxPoint x="443" y="410" />
            </Array>
          </mxGeometry>
        </mxCell>
        <mxCell id="xQzob73jMmwW_WmET0h1-114" value="Différents status" style="rounded=1;fillColor=#23445D;gradientColor=none;strokeColor=none;fontColor=#FFFFFF;fontStyle=1;fontFamily=Tahoma;fontSize=14" parent="1" vertex="1">
          <mxGeometry x="358" y="475" width="170" height="35" as="geometry" />
        </mxCell>
        <mxCell id="xQzob73jMmwW_WmET0h1-115" value="" style="edgeStyle=elbowEdgeStyle;elbow=vertical;strokeWidth=2;rounded=0;exitX=0.5;exitY=1;exitDx=0;exitDy=0;entryX=0.5;entryY=0;entryDx=0;entryDy=0;" parent="1" source="xQzob73jMmwW_WmET0h1-114" target="xQzob73jMmwW_WmET0h1-109" edge="1">
          <mxGeometry x="-620.59" y="289" width="100" height="100" as="geometry">
            <mxPoint x="444.75" y="539.9999999999999" as="sourcePoint" />
            <mxPoint x="444" y="580" as="targetPoint" />
          </mxGeometry>
        </mxCell>
        <mxCell id="xQzob73jMmwW_WmET0h1-116" value="Affichage du nom &#xa;d’utilisateur dans l’application" style="rounded=1;fillColor=#23445D;gradientColor=none;strokeColor=none;fontColor=#FFFFFF;fontStyle=1;fontFamily=Tahoma;fontSize=14" parent="1" vertex="1">
          <mxGeometry x="102.82" y="460" width="231.37" height="40" as="geometry" />
        </mxCell>
        <mxCell id="xQzob73jMmwW_WmET0h1-117" value="" style="edgeStyle=elbowEdgeStyle;elbow=vertical;strokeWidth=2;rounded=0;exitX=0.5;exitY=1;exitDx=0;exitDy=0;" parent="1" source="13" target="xQzob73jMmwW_WmET0h1-116" edge="1">
          <mxGeometry x="-609.5" y="121" width="100" height="100" as="geometry">
            <mxPoint x="218.5" y="415.5" as="sourcePoint" />
            <mxPoint x="-509.5" y="121" as="targetPoint" />
          </mxGeometry>
        </mxCell>
        <mxCell id="xQzob73jMmwW_WmET0h1-122" value="Page client" style="rounded=1;fillColor=#23445D;gradientColor=none;strokeColor=none;fontColor=#FFFFFF;fontStyle=1;fontFamily=Tahoma;fontSize=14" parent="1" vertex="1">
          <mxGeometry x="960" y="350" width="200" height="60" as="geometry" />
        </mxCell>
        <mxCell id="xQzob73jMmwW_WmET0h1-124" value="" style="edgeStyle=elbowEdgeStyle;elbow=vertical;strokeWidth=2;rounded=0;entryX=0.5;entryY=0;entryDx=0;entryDy=0;" parent="1" target="xQzob73jMmwW_WmET0h1-122" edge="1">
          <mxGeometry x="333.5" y="216" width="100" height="100" as="geometry">
            <mxPoint x="920" y="266" as="sourcePoint" />
            <mxPoint x="1556.5" y="337.75" as="targetPoint" />
            <Array as="points">
              <mxPoint x="940" y="299" />
              <mxPoint x="940" y="299" />
              <mxPoint x="930" y="299" />
              <mxPoint x="940" y="299" />
              <mxPoint x="1236.5" y="298.5" />
            </Array>
          </mxGeometry>
        </mxCell>
        <mxCell id="xQzob73jMmwW_WmET0h1-125" value="" style="edgeStyle=elbowEdgeStyle;elbow=vertical;strokeWidth=2;rounded=0;" parent="1" target="xQzob73jMmwW_WmET0h1-126" edge="1">
          <mxGeometry x="-573" y="148.25" width="100" height="100" as="geometry">
            <mxPoint x="1060" y="428" as="sourcePoint" />
            <mxPoint x="1010" y="488" as="targetPoint" />
          </mxGeometry>
        </mxCell>
        <mxCell id="xQzob73jMmwW_WmET0h1-126" value="Choisir un taxi" style="rounded=1;fillColor=#23445D;gradientColor=none;strokeColor=none;fontColor=#FFFFFF;fontStyle=1;fontFamily=Tahoma;fontSize=10;" parent="1" vertex="1">
          <mxGeometry x="822" y="590" width="110" height="30" as="geometry" />
        </mxCell>
        <mxCell id="xQzob73jMmwW_WmET0h1-129" value="" style="edgeStyle=elbowEdgeStyle;elbow=vertical;strokeWidth=2;rounded=0;entryX=0.5;entryY=0;entryDx=0;entryDy=0;" parent="1" target="xQzob73jMmwW_WmET0h1-130" edge="1">
          <mxGeometry x="-423" y="148.25" width="100" height="100" as="geometry">
            <mxPoint x="1060" y="430" as="sourcePoint" />
            <mxPoint x="1160" y="488" as="targetPoint" />
            <Array as="points">
              <mxPoint x="1200" y="500" />
              <mxPoint x="1210" y="500" />
              <mxPoint x="1250" y="440" />
            </Array>
          </mxGeometry>
        </mxCell>
        <mxCell id="xQzob73jMmwW_WmET0h1-130" value="filtrer selon le prix" style="rounded=1;fillColor=#23445D;gradientColor=none;strokeColor=none;fontColor=#FFFFFF;fontStyle=1;fontFamily=Tahoma;fontSize=10;" parent="1" vertex="1">
          <mxGeometry x="1240" y="580" width="120" height="32.88" as="geometry" />
        </mxCell>
        <mxCell id="xQzob73jMmwW_WmET0h1-131" value="" style="edgeStyle=elbowEdgeStyle;elbow=vertical;strokeWidth=2;rounded=0;entryX=0.522;entryY=-0.016;entryDx=0;entryDy=0;entryPerimeter=0;exitX=0.5;exitY=1;exitDx=0;exitDy=0;" parent="1" source="xQzob73jMmwW_WmET0h1-122" target="xQzob73jMmwW_WmET0h1-132" edge="1">
          <mxGeometry x="-410" y="148.25" width="100" height="100" as="geometry">
            <mxPoint x="1049" y="427" as="sourcePoint" />
            <mxPoint x="1173" y="488" as="targetPoint" />
            <Array as="points">
              <mxPoint x="1039" y="550" />
              <mxPoint x="1039" y="550" />
              <mxPoint x="1039" y="550" />
              <mxPoint x="1040" y="550" />
              <mxPoint x="1040" y="540" />
              <mxPoint x="1040" y="520" />
            </Array>
          </mxGeometry>
        </mxCell>
        <mxCell id="xQzob73jMmwW_WmET0h1-132" value="Déterminer sa localisation" style="rounded=1;fillColor=#23445D;gradientColor=none;strokeColor=none;fontColor=#FFFFFF;fontStyle=1;fontFamily=Tahoma;fontSize=10;" parent="1" vertex="1">
          <mxGeometry x="877" y="643.75" width="140" height="28.25" as="geometry" />
        </mxCell>
        <mxCell id="xQzob73jMmwW_WmET0h1-133" value="Text" style="text;html=1;align=center;verticalAlign=middle;resizable=0;points=[];autosize=1;fontSize=20;fontColor=#FFFFFF;" parent="1" vertex="1">
          <mxGeometry x="1092" y="672" width="50" height="30" as="geometry" />
        </mxCell>
        <mxCell id="xQzob73jMmwW_WmET0h1-134" value="" style="edgeStyle=elbowEdgeStyle;elbow=vertical;strokeWidth=2;rounded=0;" parent="1" target="xQzob73jMmwW_WmET0h1-135" edge="1">
          <mxGeometry x="-593" y="135.88" width="100" height="100" as="geometry">
            <mxPoint x="1060" y="428" as="sourcePoint" />
            <mxPoint x="990" y="475.63" as="targetPoint" />
          </mxGeometry>
        </mxCell>
        <mxCell id="xQzob73jMmwW_WmET0h1-135" value="carte des taxis &#xa;en cours de travail" style="rounded=1;fillColor=#23445D;gradientColor=none;strokeColor=none;fontColor=#FFFFFF;fontStyle=1;fontFamily=Tahoma;fontSize=10;" parent="1" vertex="1">
          <mxGeometry x="1032" y="640" width="110" height="30" as="geometry" />
        </mxCell>
        <mxCell id="xQzob73jMmwW_WmET0h1-136" value="" style="edgeStyle=elbowEdgeStyle;elbow=vertical;strokeWidth=2;rounded=0;exitX=0.5;exitY=1;exitDx=0;exitDy=0;entryX=0.5;entryY=0;entryDx=0;entryDy=0;" parent="1" source="xQzob73jMmwW_WmET0h1-122" target="xQzob73jMmwW_WmET0h1-137" edge="1">
          <mxGeometry x="-493" y="158.25" width="100" height="100" as="geometry">
            <mxPoint x="1089.9999999999998" y="438.2499999999999" as="sourcePoint" />
            <mxPoint x="1090" y="498" as="targetPoint" />
            <Array as="points">
              <mxPoint x="1150" y="520" />
              <mxPoint x="1200" y="590" />
              <mxPoint x="1150" y="520" />
              <mxPoint x="1200" y="580" />
              <mxPoint x="1120" y="530" />
              <mxPoint x="1110" y="450" />
              <mxPoint x="1120" y="470" />
            </Array>
          </mxGeometry>
        </mxCell>
        <mxCell id="xQzob73jMmwW_WmET0h1-137" value="Note moyenne du taxi" style="rounded=1;fillColor=#23445D;gradientColor=none;strokeColor=none;fontColor=#FFFFFF;fontStyle=1;fontFamily=Tahoma;fontSize=10;" parent="1" vertex="1">
          <mxGeometry x="1150" y="639.1199999999999" width="120" height="32.88" as="geometry" />
        </mxCell>
        <mxCell id="xQzob73jMmwW_WmET0h1-138" value="Liste des taxis" style="rounded=1;fillColor=#23445D;gradientColor=none;strokeColor=none;fontColor=#FFFFFF;fontStyle=1;fontFamily=Tahoma;fontSize=14" parent="1" vertex="1">
          <mxGeometry x="1940" y="475" width="130" height="40" as="geometry" />
        </mxCell>
        <mxCell id="xQzob73jMmwW_WmET0h1-139" value="" style="edgeStyle=elbowEdgeStyle;elbow=vertical;strokeWidth=2;rounded=0;exitX=0.5;exitY=1;exitDx=0;exitDy=0;" parent="1" source="4" target="xQzob73jMmwW_WmET0h1-138" edge="1">
          <mxGeometry x="153" y="135.5" width="100" height="100" as="geometry">
            <mxPoint x="1628.5" y="403" as="sourcePoint" />
            <mxPoint x="253" y="135.5" as="targetPoint" />
          </mxGeometry>
        </mxCell>
        <mxCell id="xQzob73jMmwW_WmET0h1-142" value="Page conducteur" style="rounded=1;fillColor=#23445D;gradientColor=none;strokeColor=none;fontColor=#FFFFFF;fontStyle=1;fontFamily=Tahoma;fontSize=14" parent="1" vertex="1">
          <mxGeometry x="1490" y="327.25" width="200" height="62.75" as="geometry" />
        </mxCell>
        <mxCell id="xQzob73jMmwW_WmET0h1-145" value="" style="edgeStyle=elbowEdgeStyle;elbow=vertical;strokeWidth=2;rounded=0;entryX=0.5;entryY=0;entryDx=0;entryDy=0;" parent="1" source="xQzob73jMmwW_WmET0h1-142" target="xQzob73jMmwW_WmET0h1-149" edge="1">
          <mxGeometry x="-342.84" y="135.5" width="100" height="100" as="geometry">
            <mxPoint x="-342.84" y="235.5" as="sourcePoint" />
            <mxPoint x="1503.75" y="560" as="targetPoint" />
            <Array as="points">
              <mxPoint x="1590" y="480" />
            </Array>
          </mxGeometry>
        </mxCell>
        <mxCell id="xQzob73jMmwW_WmET0h1-146" value="Affichage la course actuelle" style="rounded=1;fillColor=#23445D;gradientColor=none;strokeColor=none;fontColor=#FFFFFF;fontStyle=1;fontFamily=Tahoma;fontSize=10;" parent="1" vertex="1">
          <mxGeometry x="1660" y="581.44" width="140" height="40" as="geometry" />
        </mxCell>
        <mxCell id="xQzob73jMmwW_WmET0h1-147" value="" style="edgeStyle=elbowEdgeStyle;elbow=vertical;strokeWidth=2;rounded=0;entryX=0.5;entryY=0;entryDx=0;entryDy=0;" parent="1" target="xQzob73jMmwW_WmET0h1-146" edge="1">
          <mxGeometry x="-166.83999999999997" y="135.5" width="100" height="100" as="geometry">
            <mxPoint x="1590" y="391" as="sourcePoint" />
            <mxPoint x="-66.83999999999997" y="135.5" as="targetPoint" />
            <Array as="points">
              <mxPoint x="1650" y="480" />
            </Array>
          </mxGeometry>
        </mxCell>
        <mxCell id="xQzob73jMmwW_WmET0h1-149" value="Indiquer sa localisation actuelle" style="rounded=1;fillColor=#23445D;gradientColor=none;strokeColor=none;fontColor=#FFFFFF;fontStyle=1;fontFamily=Tahoma;fontSize=10;" parent="1" vertex="1">
          <mxGeometry x="1380" y="580" width="170" height="37.12" as="geometry" />
        </mxCell>
        <mxCell id="xQzob73jMmwW_WmET0h1-150" value="Voir ses dernières et &#xa;prochaines courses" style="rounded=1;fillColor=#23445D;gradientColor=none;strokeColor=none;fontColor=#FFFFFF;fontStyle=1;fontFamily=Tahoma;fontSize=10;" parent="1" vertex="1">
          <mxGeometry x="1490" y="643.75" width="130" height="40" as="geometry" />
        </mxCell>
        <mxCell id="xQzob73jMmwW_WmET0h1-151" value="" style="edgeStyle=elbowEdgeStyle;elbow=vertical;strokeWidth=2;rounded=0;entryX=0.5;entryY=0;entryDx=0;entryDy=0;exitX=0.5;exitY=1;exitDx=0;exitDy=0;" parent="1" source="xQzob73jMmwW_WmET0h1-142" target="xQzob73jMmwW_WmET0h1-150" edge="1">
          <mxGeometry x="-266.84" y="192.62" width="100" height="100" as="geometry">
            <mxPoint x="1526.5" y="388.12" as="sourcePoint" />
            <mxPoint x="-166.83999999999997" y="192.62" as="targetPoint" />
            <Array as="points">
              <mxPoint x="1600" y="540" />
              <mxPoint x="1590" y="490" />
              <mxPoint x="1527" y="440" />
              <mxPoint x="1550" y="537.12" />
            </Array>
          </mxGeometry>
        </mxCell>
        <mxCell id="xQzob73jMmwW_WmET0h1-152" value="" style="edgeStyle=elbowEdgeStyle;elbow=vertical;strokeWidth=2;rounded=0" parent="1" edge="1">
          <mxGeometry x="-276.85" y="78.25" width="100" height="100" as="geometry">
            <mxPoint x="1589.9" y="297.25" as="sourcePoint" />
            <mxPoint x="1589.9" y="327.25" as="targetPoint" />
          </mxGeometry>
        </mxCell>
        <mxCell id="xs6JpK7SzmqAGYHthAqy-112" value="Modifier informations" style="rounded=1;fillColor=#23445D;gradientColor=none;strokeColor=none;fontColor=#FFFFFF;fontStyle=1;fontFamily=Tahoma;fontSize=14" vertex="1" parent="1">
          <mxGeometry x="730" y="430" width="210" height="40" as="geometry" />
        </mxCell>
        <mxCell id="xs6JpK7SzmqAGYHthAqy-113" value="" style="edgeStyle=elbowEdgeStyle;elbow=vertical;strokeWidth=2;rounded=0;entryX=0.5;entryY=0;entryDx=0;entryDy=0;exitX=0.5;exitY=1;exitDx=0;exitDy=0;" edge="1" parent="1" source="10" target="xs6JpK7SzmqAGYHthAqy-112">
          <mxGeometry x="22" y="135.5" width="100" height="100" as="geometry">
            <mxPoint x="700.0000000000001" y="390" as="sourcePoint" />
            <mxPoint x="700.0000000000001" y="462.5" as="targetPoint" />
          </mxGeometry>
        </mxCell>
        <mxCell id="xs6JpK7SzmqAGYHthAqy-114" value="Activer/désactiver travail " style="rounded=1;fillColor=#23445D;gradientColor=none;strokeColor=none;fontColor=#FFFFFF;fontStyle=1;fontFamily=Tahoma;fontSize=10;" vertex="1" parent="1">
          <mxGeometry x="1630" y="643.75" width="140" height="40" as="geometry" />
        </mxCell>
        <mxCell id="xs6JpK7SzmqAGYHthAqy-115" value="" style="edgeStyle=elbowEdgeStyle;elbow=vertical;strokeWidth=2;rounded=0;exitX=0.5;exitY=1;exitDx=0;exitDy=0;" edge="1" parent="1" source="xQzob73jMmwW_WmET0h1-142">
          <mxGeometry x="-256.84" y="192.62" width="100" height="100" as="geometry">
            <mxPoint x="1600" y="390" as="sourcePoint" />
            <mxPoint x="1650" y="644" as="targetPoint" />
            <Array as="points">
              <mxPoint x="1610" y="540" />
              <mxPoint x="1600" y="490" />
              <mxPoint x="1537" y="440" />
              <mxPoint x="1560" y="537.12" />
            </Array>
          </mxGeometry>
        </mxCell>
      </root>
    </mxGraphModel>
  </diagram>
</mxfile>
